# xmcd
#
# Track frame offsets: 
#        150
#        15829
#        35868
#        53483
#        66219
#        85144
#        98655
#        120362
#        137732
#        154613
#        175787
#        195369
#
# Disc length: 2811 seconds
#
# Revision: 0
# Processed by: cddbd v1.5.2PL0 Copyright (c) Steve Scherf et al.
# Submitted via: ExactAudioCopy v0.95b4
#
DISCID=880af90c
DTITLE=Grant Walmsley's Agents of Peace - Grant Walmsley's Agents of P
DTITLE=eace
DYEAR=2007
DGENRE=Blues and Roots
TTITLE0=Wang Dang Doodle
TTITLE1=Mushrooms and Rainbows
TTITLE2=Grey Flannel Suits
TTITLE3=Stay a While
TTITLE4=U is Me
TTITLE5=Cannonball
TTITLE6=Sunset in the West
TTITLE7=Friend of the Devil
TTITLE8=Impossible
TTITLE9=Mole in the Ground
TTITLE10=Old Black Crow
TTITLE11=Autocraft
EXTD=
EXTT0=
EXTT1=
EXTT2=
EXTT3=
EXTT4=
EXTT5=
EXTT6=
EXTT7=
EXTT8=
EXTT9=
EXTT10=
EXTT11=
PLAYORDER=
